<?xml version="1.0" encoding="UTF-8"?><svg xmlns="http://www.w3.org/2000/svg" viewBox="0 0 871.95 215.96"><g id="a"/><g id="b"><g id="c"><g><path d="M49.74,0c32.25,0,48.83,19.29,48.83,53.05v6.63h-31.35v-8.74c0-15.07-6.03-20.8-16.58-20.8s-16.58,5.73-16.58,20.8c0,43.41,64.81,51.55,64.81,111.84,0,33.76-16.88,53.05-49.44,53.05S0,196.54,0,162.78v-12.96H31.35v15.07c0,15.07,6.63,20.5,17.18,20.5s17.18-5.43,17.18-20.5C65.71,121.48,.9,113.34,.9,53.05,.9,19.29,17.48,0,49.74,0Z"/><path d="M117.86,2.41h52.45c33.16,0,49.44,18.39,49.44,52.15v106.71c0,33.76-16.28,52.15-49.44,52.15h-52.45V2.41Zm33.16,30.14V183.28h18.69c10.55,0,16.88-5.43,16.88-20.5V53.05c0-15.07-6.33-20.5-16.88-20.5h-18.69Z"/><path d="M290.59,95.86h46.42v66.92c0,33.76-16.88,53.05-49.44,53.05s-49.44-19.29-49.44-53.05V53.05c0-33.76,16.88-53.05,49.44-53.05s49.44,19.29,49.44,53.05v20.5h-31.35v-22.61c0-15.07-6.63-20.8-17.18-20.8s-17.18,5.73-17.18,20.8v113.95c0,15.07,6.63,20.5,17.18,20.5s17.18-5.43,17.18-20.5v-38.89h-15.07v-30.14Z"/></g><g><path d="M541.42,4.28V213.86h-23.35V4.28h23.35Z"/><path d="M595.61,213.86V25.54h-38.62V4.28h100.3V25.54h-38.62V213.86h-23.05Z"/><path d="M747.71,97.1v20.96h-51.2v74.55h62.87v21.26h-86.23V4.28h86.23V25.54h-62.87V97.1h51.2Z"/><path d="M871.65,54.58v5.69h-22.16v-6.89c0-18.86-7.19-29.94-23.95-29.94s-23.95,11.08-23.95,29.64c0,47.01,70.36,51.5,70.36,110.48,0,31.74-15.27,52.39-47.31,52.39s-47.01-20.66-47.01-52.39v-11.98h21.86v13.17c0,18.86,7.78,29.94,24.55,29.94s24.55-11.08,24.55-29.94c0-46.71-70.06-51.2-70.06-110.18,0-32.34,14.97-52.4,46.41-52.4s46.71,20.66,46.71,52.4Z"/></g><path d="M468.67,102.19c18.26-5.69,24.55-19.46,24.55-41.62v-9.88c0-30.84-12.87-46.41-45.51-46.41h-47.01V46.36c6.12,2.8,10.38,8.98,10.38,16.15,0,2.73-.62,5.32-1.72,7.63,8.65,4.21,14.62,13.09,14.62,23.36,0,6.94-2.73,13.24-7.16,17.9,4.44,4.66,7.16,10.96,7.16,17.9,0,9.65-5.27,18.06-13.08,22.54,.2,1.07,.31,2.18,.31,3.31,0,7.23-4.32,13.44-10.51,16.21v42.5h48.2c32.63,0,47.9-17.66,47.9-49.1v-17.66c0-23.05-7.78-39.22-28.14-44.91Z"/></g></g></svg>