<?xml version="1.0" encoding="UTF-8"?><svg xmlns="http://www.w3.org/2000/svg" viewBox="0 0 705 705"><g id="a"/><g id="b"><g id="c"><path d="M650.42,0c8.93,31.26,1.11,66.29-23.51,90.91-36.12,36.12-94.69,36.12-130.81,0-24.62-24.62-32.44-59.65-23.51-90.91h-33.61c-.87,3.44-2.03,6.86-3.5,10.22-14.44,32.84-52.76,47.76-85.6,33.32-2.03-.89-3.99-1.88-5.88-2.95-1.01,4.06-2.35,8.1-4.09,12.06-16.43,37.36-60.03,54.34-97.39,37.91-21.28-9.36-35.93-27.53-41.58-48.35-19.16,9.91-42.46,11.4-63.74,2.05C117.3,35.53,103.19,19.09,96.82,0H0V705H705V0h-54.58Z"/></g></g></svg>