<?xml version="1.0" encoding="UTF-8"?><svg xmlns="http://www.w3.org/2000/svg" viewBox="0 0 1133 629"><g id="a"/><g id="b"><g id="c"><path d="M1009.82,571.22c6.03-17.85,18.42-31.74,33.79-40.03-5.81-20.67-5.67-43.25,1.72-65.14,13.63-40.37,48.31-67.68,87.68-73.85V0H144.51c-2.5,9.84-7.59,19.15-15.28,26.85-6.5,6.5-14.16,11.14-22.31,13.94,.72,16.97-5.4,34.18-18.36,47.15-16.54,16.54-39.98,21.92-61.04,16.19-2.1,7.72-6.18,15.03-12.24,21.09-4.52,4.52-9.72,7.93-15.27,10.25v493.53H925c0-3.09,.43-6.07,1.23-8.91-9.69-1.82-17.03-10.31-17.03-20.53,0-11.54,9.36-20.9,20.9-20.9,10.6,0,19.34,7.9,20.7,18.13,2.32-.52,4.73-.8,7.2-.8,18.23,0,33,14.77,33,33h24.17c-9.52-17.02-12.08-37.85-5.35-57.78Z"/></g></g></svg>