<?xml version="1.0" encoding="UTF-8"?><svg xmlns="http://www.w3.org/2000/svg" viewBox="0 0 852.27 944.5"><g id="a"/><g id="b"><g id="c"><path d="M852.27,79.55H402.04c-5.55,7.39-12.59,13.34-20.66,17.21,.17,1.45,.32,2.91,.4,4.39,2.02,35.22-21.63,65.21-52.82,67-.31,.02-.62,.01-.93,.03-2.42,57.42-42.78,104.26-94.87,107.25-32.74,1.88-62.85-13.99-82.93-40.13-15.06,25.08-38.9,43.02-66.96,48.05V848.55H852.27V79.55Z"/><path d="M84.99,181.18L0,212.79c4.54,5.83,10.51,10.69,17.69,13.98,23.88,10.94,52.11,.44,63.05-23.44,3.29-7.19,4.63-14.76,4.26-22.14Z"/><path d="M219.16,215.82c1.75,.27,3.52,.48,5.31,.6,34.66,2.31,64.63-23.91,66.94-58.57,1.43-21.46-8.09-41.12-23.77-53.53l-82.72,72.38,34.23,39.12Z"/><path d="M291.16,39.71l70.09,9.53c-17.66-24.76-46.46-28.68-70.09-9.53Z"/><path d="M389.87,17.38l40.46,5.5c-8.29-28.32-24.91-30.58-40.46-5.5Z"/><path d="M775.94,924.87c-.53,.92-1.08,1.84-1.67,2.73-11.35,17.24-29.26,22.08-40.01,10.81-6.65-6.98-8.99-18.5-7.12-30.36l49.44-13.36-.64,30.18Z"/><path d="M747.09,905.95c-.28-1.03-.53-2.06-.75-3.11-4.17-20.22,5.08-36.31,20.65-35.93,9.64,.23,19.44,6.73,26.5,16.44l-25.51,44.4-20.89-21.8Z"/><path d="M820.06,895.04c-.02,.46-.05,.93-.1,1.39-.92,8.99-6.65,15.15-12.8,13.75-3.81-.87-6.89-4.43-8.46-9.15l15.82-17,5.54,11Z"/></g></g></svg>