<?xml version="1.0" encoding="UTF-8"?><svg xmlns="http://www.w3.org/2000/svg" viewBox="0 0 705 705"><g id="a"/><g id="b"><g id="c"><path d="M618,0l-53.33,19.83c3.06,4.21,6.99,7.78,11.66,10.28,15.53,8.31,33.24,1.73,39.56-14.71,1.9-4.94,2.55-10.22,2.11-15.4Z"/><path d="M647.42,27.81c-.14,.9-.25,1.81-.31,2.74-1.19,17.88,12.34,33.34,30.22,34.54,11.07,.74,21.21-4.17,27.62-12.26l-37.34-42.68-20.19,17.66Z"/><path d="M99.98,0c12.6,15,32.02,23.88,53.03,22.14,6.82-.56,13.29-2.22,19.26-4.75,15.88,9.35,34.69,14.08,54.46,12.45,20.97-1.73,39.71-10.34,54.22-23.41,10.58,3.09,21.88,4.35,33.52,3.39C326.89,8.79,338.54,5.35,348.99,0h169.66c3.41,5.19,7.39,10.11,11.95,14.67,20.58,20.58,48.43,29.41,75.27,26.55-2.86,26.84,5.97,54.7,26.55,75.27,19.89,19.89,46.57,28.8,72.58,26.79V705H0V0H99.98Z"/></g></g></svg>