<?xml version="1.0" encoding="UTF-8"?><svg xmlns="http://www.w3.org/2000/svg" viewBox="0 0 1280.31 727.91"><g id="a"/><g id="b"><g id="c"><g><path d="M291.82,98.91c-2.5,9.84-7.59,19.15-15.28,26.85-6.5,6.5-14.16,11.14-22.31,13.94,.72,16.97-5.4,34.18-18.36,47.15-16.54,16.54-39.98,21.92-61.04,16.19-2.1,7.72-6.18,15.03-12.24,21.09-4.52,4.52-9.72,7.93-15.27,10.25v493.53H1280.31V98.91H291.82Z"/><path d="M92.82,274.4l-33.75,12.55c1.8,2.32,4.17,4.25,7.03,5.55,9.48,4.34,20.69,.18,25.04-9.31,1.31-2.85,1.84-5.86,1.69-8.79Z"/><path d="M109.8,176.59c.69,.11,1.4,.19,2.11,.24,13.76,.92,25.66-9.5,26.58-23.26,.57-8.52-3.21-16.33-9.44-21.26l-32.85,28.74,13.59,15.54Z"/><path d="M208.31,129.48l-22.8-16.4c3.03,9.96,12.4,16.7,22.8,16.4Z"/><path d="M296.9,26.55l42.82,22.17c-3.77,1.92-8.17,3.29-12.97,3.88-15.94,1.96-30.16-5.4-31.76-16.44-.48-3.32,.24-6.6,1.91-9.61Z"/><path d="M31.59,217.45c-1.06-.08-2.12-.18-3.18-.32-20.46-2.76-32.58-16.81-27.08-31.38,3.41-9.02,12.78-16.12,24.28-19.57l33.46,38.77-27.48,12.5Z"/><path d="M138.31,10.91L179.6,0c-9.35,9.54-26.32,14.03-41.29,10.91Z"/></g></g></g></svg>