<?xml version="1.0" encoding="UTF-8"?><svg xmlns="http://www.w3.org/2000/svg" viewBox="0 0 1380.62 735.96"><g id="a"/><g id="b"><g id="c"><path d="M92.82,274.4l-33.75,12.55c1.8,2.32,4.17,4.25,7.03,5.55,9.48,4.34,20.69,.18,25.04-9.31,1.31-2.85,1.84-5.86,1.69-8.79Z"/><path d="M109.8,176.59c.69,.11,1.4,.19,2.11,.24,13.76,.92,25.66-9.5,26.58-23.26,.57-8.52-3.21-16.33-9.44-21.26l-32.85,28.74,13.59,15.54Z"/><path d="M208.31,129.48l-22.8-16.4c3.03,9.96,12.4,16.7,22.8,16.4Z"/><path d="M296.9,26.55l42.82,22.17c-3.77,1.92-8.17,3.29-12.97,3.88-15.94,1.96-30.16-5.4-31.76-16.44-.48-3.32,.24-6.6,1.91-9.61Z"/><path d="M31.59,217.45c-1.06-.08-2.12-.18-3.18-.32-20.46-2.76-32.58-16.81-27.08-31.38,3.41-9.02,12.78-16.12,24.28-19.57l33.46,38.77-27.48,12.5Z"/><path d="M138.31,10.91L179.6,0c-9.35,9.54-26.32,14.03-41.29,10.91Z"/><path d="M1157.13,670.13c6.03-17.85,18.42-31.74,33.79-40.03-5.81-20.67-5.67-43.25,1.72-65.14,13.63-40.37,48.31-67.68,87.68-73.85V98.91H291.82c-2.5,9.84-7.59,19.15-15.28,26.85-6.5,6.5-14.16,11.14-22.31,13.94,.72,16.97-5.4,34.18-18.36,47.15-16.54,16.54-39.98,21.92-61.04,16.19-2.1,7.72-6.18,15.03-12.24,21.09-4.52,4.52-9.72,7.93-15.27,10.25v493.53h925c0-3.09,.43-6.07,1.23-8.91-9.69-1.82-17.03-10.31-17.03-20.53,0-11.54,9.36-20.9,20.9-20.9,10.6,0,19.34,7.9,20.7,18.13,2.32-.52,4.73-.8,7.2-.8,18.23,0,33,14.77,33,33h24.17c-9.52-17.02-12.08-37.85-5.35-57.78Z"/><path d="M1295.63,681.11l44.29,16.47c-4.72,9.37-10.05,17.87-15.66,24.6-18.65,22.39-33.36,16.92-32.85-12.21,.15-8.77,1.67-18.68,4.22-28.86Z"/><path d="M1257.98,566.72c.08,1.1,.2,2.21,.37,3.33,3.42,21.67,23.97,39.66,45.91,40.17,13.58,.32,24.5-6.14,30.05-16.25l-56.73-49.64-19.6,22.39Z"/><path d="M1241.16,599.12l25.17-18.1c-3.34,10.99-13.68,18.43-25.17,18.1Z"/><path d="M1365.32,605.52l-27.56,14.27c2.43,1.24,5.26,2.12,8.35,2.5,10.26,1.26,19.41-3.48,20.44-10.58,.31-2.14-.16-4.24-1.23-6.18Z"/><path d="M1264.93,627.29c1.17-.09,2.34-.2,3.51-.36,22.58-3.05,35.96-18.55,29.88-34.63-3.76-9.96-14.11-17.79-26.8-21.6l-36.93,42.79,30.33,13.79Z"/><path d="M1334.62,630.7l46.01-9.68c-5.45-10.34-24.36-6.36-46.01,9.68Z"/></g></g></svg>