<?xml version="1.0" encoding="UTF-8"?><svg xmlns="http://www.w3.org/2000/svg" viewBox="0 0 259 259"><defs><style>.d{fill:#76A9B0;}</style></defs><g id="a"/><g id="b"><g id="c"><path class="d" d="M0,0V259H259V0H0ZM177.55,185.19c0,31.44-15.27,49.1-47.9,49.1h-48.2v-42.5c6.19-2.78,10.51-8.99,10.51-16.21,0-1.13-.11-2.23-.31-3.31,7.81-4.48,13.08-12.89,13.08-22.54,0-6.94-2.73-13.24-7.16-17.9,4.44-4.66,7.16-10.96,7.16-17.9,0-10.27-5.97-19.15-14.62-23.36,1.1-2.31,1.72-4.9,1.72-7.63,0-7.17-4.26-13.35-10.38-16.15V24.71h47.01c32.63,0,45.51,15.57,45.51,46.41v9.88c0,22.16-6.29,35.93-24.55,41.62,20.36,5.69,28.14,21.86,28.14,44.91v17.66Z"/></g></g></svg>